<svg width="1200" height="1200" viewBox="0 0 1200 1200" fill="none" xmlns="http://www.w3.org/2000/svg">
<path fill-rule="evenodd" clip-rule="evenodd" d="M681.508 146.874C670.291 147.958 656.296 150.8 627.266 157.888C594.865 165.799 588.21 166.794 567.7 166.799C548.353 166.804 547.996 166.751 513.266 158.792C473.349 149.643 471.54 149.381 448.266 149.375C427.866 149.369 427.72 149.385 418.266 152.557C406.067 156.651 394.867 162.455 377.556 173.651C359.614 185.255 356.197 186.322 337.266 186.24C320.813 186.169 315.683 185.331 282.253 177.254C248.565 169.114 240.743 168.581 227.713 173.539C217.381 177.47 204.275 188.531 196.594 199.803C188.202 212.119 179.694 233.78 176.758 250.303C174.546 262.756 173.794 285.934 175.132 300.397C176.526 315.451 179.42 326.951 186.812 346.803C191.582 359.613 192.594 363.431 192.642 368.803C192.723 377.755 188.918 388.445 180.162 403.858C170.585 420.716 160.45 441.009 154.425 455.391C151.68 461.942 144.038 478.606 137.443 492.42C118.523 532.051 113.965 544.619 108.364 572.588C102.283 602.956 100.01 634.098 101.39 668.142C102.292 690.408 104.284 706.844 108.804 729.303C112.836 749.34 113.447 751.678 114.748 752.034C115.287 752.182 117.762 748.555 120.248 743.973C124.137 736.803 127.579 732.747 128.744 733.961C128.924 734.149 129.586 738.578 130.216 743.803C131.875 757.586 134.575 767.212 141.994 785.803C156.282 821.606 168.616 845.776 181.061 862.358C189.008 872.946 208.408 892.515 221.31 902.956C231.524 911.222 252.341 926.061 252.916 925.486C253.111 925.292 252.599 922.921 251.779 920.218C249.82 913.763 249.842 913.552 252.809 910.351C256.747 906.102 253.462 904.546 303.766 934.487C336.815 954.158 371.795 970.923 417.047 988.78C428.347 993.239 454.697 1005.61 486.047 1021.18C513.942 1035.03 540.636 1047.67 545.365 1049.27C553.61 1052.05 554.105 1052.11 557.365 1050.57C560.537 1049.07 561.373 1049.1 569.766 1051C577.123 1052.65 582.508 1053.04 599.266 1053.11C623.091 1053.2 638.404 1051.07 656.266 1045.16C662.041 1043.25 671.118 1041.09 676.438 1040.35C685.054 1039.16 687.948 1038.16 702.938 1031.13C725.966 1020.33 742.761 1010.66 770.872 992.023C794.785 976.17 800.278 972.789 846.551 945.434C894.024 917.371 947.669 889.652 954.95 889.423C958.569 889.309 958.782 889.474 959.084 892.62C959.26 894.445 958.913 898.223 958.314 901.016C957.715 903.81 957.451 906.321 957.727 906.597C958.453 907.323 972.434 898.687 981.766 891.749C999.018 878.923 1013.17 864.065 1029.59 841.527C1054.61 807.202 1071.89 771.395 1076.82 743.674C1077.74 738.52 1078.92 731.939 1079.45 729.05C1080.64 722.516 1083.36 720.455 1086.56 723.657C1088.23 725.324 1088.71 727.354 1089.08 734.396C1089.61 744.61 1090.53 743.802 1092.64 731.261C1099.33 691.49 1100.09 624.069 1094.23 590.803C1089.59 564.511 1084.35 550.233 1063.76 507.803C1055.88 491.578 1047.37 472.453 1044.84 465.303C1032.91 431.555 1029.81 424.655 1015.22 399.303C1002.57 377.341 997.664 367.632 996.268 361.812C995.121 357.028 995.267 356.296 1000.63 340.082C1008.21 317.126 1009.19 312.782 1010.34 297.01C1012.23 271.012 1009.52 247.078 1002.16 224.722C993.158 197.369 979.331 177.842 960.784 166.282C948.952 158.907 941.76 156.611 928.766 156.058C915.638 155.5 913.405 156.127 888.829 167.259C866.301 177.465 854.005 181.514 841.361 182.889C826.159 184.543 822.915 183.657 795.266 170.303C759.884 153.215 744.055 148.697 712.922 146.804C695.078 145.718 693.424 145.722 681.508 146.874ZM940.947 185.219C954.932 188.908 968.972 200.3 976.812 214.319C989.185 236.444 997.282 280.096 994.326 308.741C993.142 320.22 991.581 323.803 987.766 323.803C984.485 323.803 983.287 321.714 977.726 306.303C968.635 281.111 958.748 265.255 942.322 249.524C931.674 239.328 925.11 235.241 917.095 233.819C914.164 233.299 901.505 232.408 888.964 231.839C863.713 230.695 859.954 230.063 849.717 225.241C842.412 221.8 831.699 212.014 832.52 209.532C832.766 208.788 835.851 208.058 840.346 207.681C850.015 206.872 857.733 204.698 893.266 192.782C921.387 183.351 923.073 182.912 929.335 183.388C932.947 183.663 938.173 184.487 940.947 185.219ZM287.266 205.357C296.891 207.288 311.516 210.629 319.766 212.78C328.016 214.931 338.52 217.39 343.107 218.244C353.016 220.087 357.95 222.231 358.856 225.086C359.374 226.718 358.559 228.045 355.143 231.136C338.016 246.63 334.96 250.434 327.291 265.803C319.1 282.219 312.013 288.987 298.78 293.033C285.645 297.049 269.555 295.256 268.476 289.657C268.314 288.812 272.156 283.886 277.014 278.711C287.197 267.866 290.266 264.052 290.266 262.245C290.266 259.741 285.106 254.873 279.782 252.354C271.421 248.398 261.871 246.516 254.266 247.324C248.32 247.956 247.444 248.363 243.986 252.108C238.356 258.204 225.106 278.295 220.39 287.885C218.114 292.515 214.235 301.886 211.771 308.71C205.528 325.997 203.214 328.898 199.929 323.553C198.804 321.721 198.704 318.146 199.395 304.303C201.667 258.74 201.965 255.555 204.731 247.256C208.372 236.331 214.18 226.918 222.93 217.759C230.793 209.529 240.436 203.512 248.509 201.797C255.263 200.363 268.376 201.567 287.266 205.357ZM793.251 261.361C806.377 264.455 823.11 274.797 831.418 284.95C845.098 301.67 851.266 318.867 851.266 340.293C851.266 366.245 844.291 382.86 825.96 400.574C819.856 406.473 816.487 408.767 808.101 412.735C794.66 419.096 789.614 420.119 774.24 419.599C763.399 419.232 760.871 418.807 754.927 416.348C737.11 408.978 721.48 394.37 713.273 377.42C706.454 363.334 705.266 357.875 705.266 340.619C705.266 321.203 708.448 309.977 718.434 294.158C725.345 283.209 741.05 269.832 753.039 264.682C764.394 259.803 780.87 258.443 793.251 261.361ZM454.65 265.249C467.233 268.44 475.406 272.785 483.467 280.567C501.113 297.603 511.233 320.078 509.915 339.303C508.941 353.509 504.106 364 493.771 374.335C477.926 390.18 451.894 395.819 428.766 388.415C417.381 384.77 409.118 379.559 399.257 369.803C392.333 362.954 389.855 359.652 386.497 352.803C380.977 341.543 379.956 336.151 380.436 320.766C380.828 308.161 380.88 307.923 384.987 299.66C392.76 284.019 408.539 270.003 425.428 263.735C432.004 261.295 440.875 261.754 454.65 265.249ZM285.133 347.361C287.29 350.103 289.523 355.643 291.297 362.657C292.61 367.846 292.552 367.847 307.766 362.401C319.286 358.277 323.922 357.903 327.077 360.842C330.084 363.643 329.821 365.591 326.166 367.6C319.825 371.084 305.606 380.813 303.36 383.203L301.037 385.676L306.151 393.323C308.964 397.529 311.266 401.56 311.266 402.28C311.266 406.23 303.483 403.486 296.113 396.938C293.553 394.664 291.197 392.803 290.876 392.803C290.009 392.803 277.536 403.341 271.516 409.16C268.629 411.951 266.266 415.088 266.266 416.13C266.266 417.173 268 420.113 270.12 422.664C276.03 429.779 276.912 431.858 274.701 433.474C272.261 435.259 269.985 435.153 261.762 432.873C257.452 431.678 254.384 431.29 253.702 431.856C253.098 432.358 251.289 435.139 249.684 438.036C247.369 442.214 246.766 444.544 246.766 449.303C246.766 454.773 246.566 455.331 244.505 455.624C241.811 456.006 240.446 458.51 236.778 469.803C231.921 484.753 228.112 489.421 222.76 486.982C218.425 485.007 217.732 481.916 219.125 470.758C219.806 465.304 221.063 458.481 221.92 455.598C223.435 450.495 223.42 450.317 221.341 448.937C219.206 447.519 219.207 447.517 222.116 445.748C224.02 444.59 226.238 441.427 228.529 436.601C230.454 432.543 233.901 426.166 236.189 422.429L240.347 415.635L238.307 410.182C235.759 403.374 235.735 396.569 238.239 391.053C239.3 388.716 240.406 386.803 240.697 386.803C240.988 386.803 244.018 389.468 247.431 392.726L253.636 398.649L264.701 389.078C270.787 383.813 276.716 378.495 277.878 377.26L279.989 375.013L277.653 368.158C274.594 359.179 274.421 349.648 277.266 346.803C279.975 344.094 282.716 344.288 285.133 347.361ZM607.573 391.311C646.771 393.657 671.087 396.823 685.068 401.4C693.173 404.053 707.489 411.584 714.57 416.917C726.093 425.598 737.341 441.34 742.888 456.549C744.462 460.864 746.495 464.562 747.743 465.38C748.924 466.154 754.901 467.895 761.026 469.25C794.66 476.689 825.121 497.58 859.524 536.803C865.554 543.678 871.005 549.603 871.638 549.969C872.27 550.335 874.807 550.264 877.276 549.811C883.957 548.585 904.232 546.941 926.634 545.807C946.273 544.814 973.709 545.875 975.554 547.699C975.987 548.128 961.958 548.779 944.378 549.146C912.758 549.806 912.25 549.85 897.075 553.249C879.856 557.107 878.266 557.596 878.266 559.032C878.266 559.59 881.627 565.525 885.736 572.221C912.83 616.384 925.019 661.959 922.866 711.055C922.029 730.158 920.019 741.383 915.741 750.859C913.85 755.047 911.351 761.585 910.189 765.388C903.74 786.483 890.79 811.98 876.456 831.803C867.367 844.373 845.052 867.338 840.936 868.359C838.834 868.88 837.361 868.51 835.214 866.923L832.323 864.786L830.933 867.044C830.168 868.287 827.83 872.228 825.736 875.803C820.417 884.885 812.18 896.547 803.925 906.682C783.865 931.31 777.683 936.742 748.772 955.145C744.752 957.704 742.803 960.023 738.772 967.045C730.108 982.138 721.22 993.949 710.316 1004.86C691.735 1023.45 684.945 1025.99 679.565 1016.37C678.734 1014.89 677.385 1015.18 666.574 1019.23C638.996 1029.54 625.035 1032.24 599.266 1032.22C573.883 1032.2 557.252 1028.68 535.659 1018.75L527.068 1014.8L524.266 1017.8C515.936 1026.72 502.529 1017.44 472.514 981.989C458.155 965.028 456.226 963.151 446.388 956.573C426.941 943.568 411.472 929.633 384.482 900.807C362.14 876.945 350.521 861.966 340.842 844.549C338.778 840.834 336.737 838.012 336.307 838.278C335.876 838.544 335.236 840.204 334.883 841.967C334.122 845.773 331.624 848.803 329.247 848.803C321.258 848.803 299.928 807.439 292.378 777.303C288.753 762.835 285.619 745.773 284.678 735.394C284.039 728.345 283.832 727.806 281.98 728.394C280.877 728.744 269.802 733.981 257.37 740.031C227.397 754.617 219.142 758.345 222.266 755.883C226.41 752.618 253.863 736.483 268.266 728.848C275.691 724.913 282.26 721.05 282.864 720.265C283.474 719.471 284.227 712.287 284.56 704.07C285.253 686.979 287.797 671.043 293.26 649.573C295.392 641.195 296.938 634.142 296.696 633.899C295.098 632.302 264.438 640.976 245.385 648.417C231.611 653.795 187.548 675.39 174.766 683.026C169.816 685.984 164.416 689.214 162.766 690.204C159.923 691.911 159.949 691.838 163.266 688.817C165.191 687.063 170.384 682.779 174.805 679.297C200.474 659.084 247.015 637.93 284.766 629.319C291.366 627.814 297.681 626.01 298.8 625.311C299.984 624.571 302.461 619.911 304.723 614.171C308.811 603.796 319.675 579.913 326.297 566.74L330.211 558.957L325.059 557.852C317.383 556.206 291.234 552.973 274.772 551.635C259.644 550.405 223.574 551.616 207.415 553.897C203.372 554.468 199.876 554.746 199.644 554.515C198.994 553.864 212.103 549.93 220.356 548.3C224.432 547.495 235.716 546.291 245.432 545.624C266.837 544.155 285.206 545.272 314.091 549.8C324.719 551.466 333.835 552.569 334.349 552.252C334.862 551.935 337.82 548.216 340.923 543.989C347.992 534.358 366.51 515.39 375.825 508.238C383.386 502.433 397.215 494.803 400.176 494.803C401.167 494.803 403.969 493.283 406.402 491.425C418.614 482.101 443.133 468.631 450.788 467.04L454.603 466.247L458.439 453.492C463.175 437.742 467.61 428.777 474.267 421.493C478.454 416.911 481.622 414.779 491.579 409.845C504.717 403.335 525.839 395.964 538.995 393.298C556.061 389.84 574.211 389.314 607.573 391.311ZM520.42 415.88C501.625 418.317 477.266 432.797 477.266 441.531C477.266 442.781 477.425 443.803 477.62 443.803C477.814 443.803 483.102 441.366 489.37 438.387C495.638 435.409 508.641 430.269 518.266 426.966C538.821 419.913 545.266 417.256 545.266 415.839C545.266 414.618 529.954 414.643 520.42 415.88ZM746.754 476.505C744.932 489.986 739.993 501.961 735.159 504.619C733.347 505.615 729.033 505.808 717.398 505.414L702.03 504.893L696.398 507.745C683.736 514.157 673.978 523.699 670.763 532.813C669.925 535.188 668.773 543.688 668.204 551.701C666.894 570.148 665.995 574.041 661.695 579.9C656.074 587.557 630.128 602.583 617.24 605.644C605.277 608.485 579.985 607.812 564.401 604.238C548.722 600.642 527.832 585.683 525.39 576.303C524.818 574.103 523.628 564.878 522.746 555.803C520.367 531.327 519.232 526.79 513.543 519.018C510.916 515.429 507.037 511.1 504.924 509.398C501.438 506.59 500.326 506.275 492.924 506.002C487.844 505.815 480.865 506.432 474.428 507.636C463.877 509.609 461.403 509.529 457.617 507.09C454.353 504.987 453.477 501.437 452.89 487.929C452.594 481.124 452.145 475.349 451.892 475.096C451.207 474.41 442.849 478.293 433.783 483.509C410.702 496.788 388.989 517.968 374.488 541.348C369.23 549.826 363.923 559.827 364.449 560.268C364.623 560.414 367.241 561.334 370.266 562.313C386.611 567.603 410.459 579.587 422.188 588.403C427.852 592.662 431.047 596.355 429.984 597.418C429.74 597.662 424.191 594.613 417.653 590.641C396.99 578.09 366.14 565.143 362.426 567.464C358.827 569.713 350.732 598.946 349.583 613.845L348.994 621.49L365.88 622.197C386.226 623.049 404.588 625.303 412.178 627.88L417.766 629.777L410.766 629.233C390.24 627.64 375.352 626.896 363.077 626.852L349.389 626.803L348.691 631.458C347.815 637.295 348.83 652.229 350.838 663.047C352.812 673.685 357.05 687.909 358.78 689.699C359.933 690.892 361.709 690.776 371.005 688.9C391.245 684.816 418.329 682.478 419.7 684.696C420.437 685.888 417.754 686.467 405.266 687.81C384.009 690.096 361.233 695.115 361.283 697.502C361.292 697.943 363.352 702.126 365.86 706.798C390.611 752.903 436.315 778.686 484.701 773.841C505.276 771.78 521.351 766.675 538.851 756.643C551.927 749.147 557.982 744.194 575.869 726.359C591.945 710.33 598.22 702.051 598.272 696.803C598.305 693.497 599.886 691.008 601.125 692.311C601.644 692.857 603.981 698.253 606.318 704.303C610.271 714.535 611.071 715.8 617.761 722.419C626.337 730.904 645.373 743.745 659.78 750.763C680.564 760.889 698.115 765.331 721.825 766.468C745.196 767.589 763.495 763.722 784.41 753.241C801.64 744.607 812.064 736.908 822.094 725.411C830.19 716.131 841.366 698.569 840.027 697.231C838.72 695.923 817.372 687.864 794.862 680.179C767.469 670.828 760.266 668.018 760.266 666.68C760.266 665.269 762.417 665.607 776.677 669.262C792.744 673.38 816.935 681.213 832.306 687.275L843.402 691.651L845.406 686.977C848.719 679.246 851.129 669.003 852.738 655.803C853.576 648.928 854.474 641.728 854.732 639.803C854.991 637.878 854.839 635.718 854.395 635.004C853.066 632.867 804.918 627.386 776.266 626.111C759.984 625.386 757.09 624.676 762.773 622.801C769.609 620.545 808.524 622.371 841.012 626.472C848.297 627.392 854.448 627.955 854.679 627.723C855.324 627.078 853.44 611.272 851.649 602.303C849.561 591.849 842.53 570.35 840.296 567.592L838.545 565.429L827.655 568.223C821.666 569.759 805.319 574.799 791.328 579.422C766.455 587.64 763.112 588.252 764.625 584.311C766.074 580.533 798.555 567.856 823.616 561.287C829.584 559.723 834.678 557.893 834.936 557.22C836.057 554.299 822.528 533.125 811.063 519.859C797.621 504.303 775.959 487.392 754.084 475.377L747.403 471.707L746.754 476.505ZM716.266 588.097C722.633 591.318 716.222 596.799 706.083 596.801C701.315 596.803 700.301 596.487 699.778 594.841C698.974 592.307 700.801 588.93 703.581 587.81C706.818 586.506 713.416 586.655 716.266 588.097ZM738.437 628.458C740.94 630.723 740.745 631.97 737.384 635.19C734.536 637.918 734.432 637.936 728.36 636.742C724.982 636.077 721.965 635.124 721.656 634.624C720.777 633.203 723.388 630.658 727.766 628.666C732.767 626.392 736.082 626.327 738.437 628.458ZM711.695 672.374C713.718 674.398 713.689 676.678 711.611 678.974C709.58 681.219 705.945 681.339 703.837 679.232C701.731 677.125 701.858 675.211 704.266 672.803C706.668 670.401 709.554 670.234 711.695 672.374ZM610.835 763.053C608.527 776.347 603.68 795.599 602.189 797.396C598.759 801.529 596.417 797.287 588.328 772.291C585.483 763.498 582.75 755.895 582.254 755.397C581.718 754.857 579.821 755.872 577.56 757.91C575.473 759.791 565.757 767.315 555.969 774.63C540.323 786.323 538.253 788.195 538.846 790.117C539.216 791.319 542.344 799.278 545.797 807.803C549.25 816.328 554.124 828.982 556.629 835.923C566.401 863 572.521 876.151 579.404 884.858C584.701 891.559 587.317 892.212 606.121 891.526C619.258 891.046 621.966 890.672 624.171 889.034C629.543 885.043 639.662 862.725 649.442 833.303C652.184 825.053 656.935 811.139 659.999 802.383L665.571 786.462L662.993 784.245C661.576 783.025 656.444 779.644 651.591 776.731C646.737 773.818 637.591 767.986 631.266 763.771C621.074 756.978 614.117 752.803 612.99 752.803C612.783 752.803 611.813 757.415 610.835 763.053ZM626.766 912.331C616.378 917.237 599.417 917.411 581.302 912.798C577.197 911.753 573.762 910.989 573.67 911.1C572.985 911.926 565.923 949.149 565.854 952.297C565.766 956.283 565.776 956.293 570.266 956.96C572.741 957.328 579.769 957.955 585.883 958.355L597 959.081L598.213 954.024C599.673 947.936 602.445 944.876 604.759 946.797C605.601 947.496 607.729 950.767 609.488 954.067L612.685 960.067L620.226 959.468C628.977 958.772 644.268 956.038 646.246 954.815C647.336 954.142 646.168 949.591 640.362 931.889C636.377 919.742 632.814 909.841 632.442 909.886C632.07 909.932 629.516 911.032 626.766 912.331ZM718.182 955.285C709.591 959.76 684.796 970.013 673.266 973.856C653.361 980.493 646.884 981.278 612.266 981.254C585.807 981.236 579.718 980.932 566.31 978.959C547.198 976.146 525.655 970.687 505.016 963.427C492.966 959.189 489.266 958.234 489.266 959.363C489.266 962.646 504.173 989.877 504.235 986.708C504.252 985.831 505.137 984.324 506.202 983.361C508.067 981.673 508.813 981.941 526.452 990.653C552.585 1003.56 563.578 1006.74 589.112 1008.8C615.958 1010.95 641.153 1006.69 666.984 995.607C676.591 991.487 681.868 988.689 693.707 981.441C702.198 976.242 703.271 976.577 704.24 984.726L704.766 989.149L708.685 983.236C713.257 976.34 724.266 955.655 724.266 953.962C724.266 952.362 723.452 952.539 718.182 955.285Z" fill="white"/>
</svg>
